<svg version="1.0" xmlns="http://www.w3.org/2000/svg" width="512.000000pt" height="512.000000pt"
    viewBox="0 0 512.000000 512.000000" preserveAspectRatio="xMidYMid meet">

    <g transform="translate(0.000000,512.000000) scale(0.100000,-0.100000)" fill="#000000"
        stroke="none">
        <path d="M762 4849 c-96 -16 -240 -70 -323 -122 -207 -127 -354 -328 -415
-567 -18 -73 -19 -135 -19 -1875 l0 -1800 24 -45 c54 -105 147 -168 259 -177
91 -7 162 20 251 96 312 268 681 449 1056 520 33 6 85 16 115 23 39 8 427 13
1350 18 l1295 6 85 22 c316 84 568 335 652 652 l23 85 0 1215 0 1215 -28 88
c-99 316 -308 525 -623 624 l-89 28 -1780 1 c-1011 1 -1803 -2 -1833 -7z
m3600 -308 c117 -30 193 -73 279 -160 76 -75 110 -130 153 -241 21 -55 21 -61
24 -1212 3 -1287 5 -1236 -64 -1377 -26 -52 -58 -96 -108 -146 -77 -77 -144
-120 -246 -157 l-65 -23 -1285 -6 c-1425 -6 -1342 -2 -1637 -75 -388 -95 -743
-278 -1044 -536 -31 -26 -59 -48 -63 -48 -11 0 -7 3442 4 3502 24 126 103 266
197 347 75 64 211 129 303 144 14 2 802 5 1751 6 1675 1 1728 0 1801 -18z" />
        <path d="M1179 3756 c-99 -26 -195 -107 -246 -206 l-28 -55 -3 -686 -3 -685
23 -34 c33 -48 83 -72 137 -67 55 6 90 32 119 87 21 41 22 57 22 237 l0 193
303 0 c284 0 304 1 335 20 100 61 95 204 -8 258 -43 21 -53 22 -337 22 l-293
0 0 290 0 291 25 24 24 25 273 0 c247 0 277 2 308 19 55 29 75 64 75 131 0 67
-20 102 -75 131 -32 17 -61 19 -320 18 -192 0 -300 -4 -331 -13z" />
        <path d="M2443 3756 c-141 -35 -268 -137 -333 -270 -27 -54 -43 -105 -50 -151
-5 -39 -10 -318 -10 -625 l0 -556 23 -44 c28 -55 63 -81 118 -87 51 -5 101 18
134 61 18 25 20 46 25 244 l5 217 208 3 207 2 0 -206 c0 -194 1 -209 22 -245
23 -41 84 -79 128 -79 48 0 108 39 129 84 20 41 21 57 21 627 0 486 -3 595
-15 648 -64 269 -344 442 -612 377z m195 -302 c49 -20 90 -60 113 -109 16 -35
19 -67 19 -267 l0 -228 -211 0 -211 0 4 233 c3 218 4 235 25 274 51 95 165
137 261 97z" />
        <path d="M3671 3759 c-25 -5 -78 -24 -119 -44 -86 -40 -181 -131 -224 -211
-56 -103 -58 -129 -58 -609 0 -267 5 -458 11 -485 29 -128 137 -266 256 -328
106 -56 158 -62 543 -62 339 0 347 0 390 23 57 29 83 75 77 140 -8 95 -66 137
-189 137 l-78 0 0 500 c0 331 -4 517 -11 552 -57 265 -327 440 -598 387z m184
-308 c51 -24 80 -51 105 -101 19 -38 20 -59 20 -535 l0 -495 -112 0 c-62 0
-130 5 -152 11 -51 14 -123 82 -137 128 -6 24 -9 181 -7 457 l3 420 27 41 c33
50 114 93 172 93 23 0 59 -9 81 -19z" />
    </g>
</svg>